<svg xmlns="http://www.w3.org/2000/svg" viewBox="0 0 710.025 424.146">
    <title>Asset 2</title>
    <g id="f98528ed-5b03-492f-9f5b-398e7e247038">
        <g id="be111822-b9d4-4671-b640-52b7ef3429e9">
            <polygon points="60.461 406.431 67.252 422.834 60.472 406.431 60.461 406.431"
                style="fill:#204294" />
            <polygon points="24.933 406.431 22.227 412.976 24.953 406.431 24.933 406.431"
                style="fill:#204294" />
            <polygon points="54.895 392.98 42.757 363.674 54.891 392.98 54.895 392.98"
                style="fill:#204294" />
            <polygon
                points="51.615 346.286 34.118 346.286 0 422.834 18.123 422.834 22.227 412.976 24.933 406.431 24.953 406.431 42.757 363.674 54.895 392.98 54.891 392.98 60.461 406.431 60.472 406.431 67.252 422.834 85.842 422.834 51.615 346.286"
                style="fill:#204294" />
            <polygon points="22.227 412.976 18.123 422.834 18.153 422.834 22.227 412.976"
                style="fill:#204294" />
            <path
                d="M100.658,415.069q-9.13-9.075-9.131-25.917V346.286h17.716V388.5q0,20.559,17.059,20.558,8.308,0,12.685-4.975t4.374-15.583V346.286h17.5v42.866q0,16.844-9.131,25.917t-25.533,9.077Q109.789,424.146,100.658,415.069Z"
                style="fill:#204294" />
            <path d="M192.9,360.721H168.4V346.286h66.706v14.435h-24.5v62.113H192.9Z"
                style="fill:#204294" />
            <path
                d="M259.111,419.006a38.133,38.133,0,0,1-14.981-14.161,40.715,40.715,0,0,1,0-40.57,38.14,38.14,0,0,1,14.981-14.161,47.379,47.379,0,0,1,42.921,0,39.041,39.041,0,0,1,0,68.892,47.371,47.371,0,0,1-42.921,0Zm33.736-13.067a22.373,22.373,0,0,0,8.584-8.695,27.376,27.376,0,0,0,0-25.369,22.374,22.374,0,0,0-8.584-8.693,25.62,25.62,0,0,0-24.5,0,22.356,22.356,0,0,0-8.585,8.693,27.376,27.376,0,0,0,0,25.369,22.355,22.355,0,0,0,8.585,8.695,25.628,25.628,0,0,0,24.5,0Z"
                style="fill:#204294" />
            <path
                d="M393.233,422.834l-18.262-25.59a55.482,55.482,0,0,1-7.437.548h-21.87v25.042h-5.577V346.286h27.447q14.436,0,22.637,6.836t8.2,18.972q0,9.076-4.647,15.254a24.614,24.614,0,0,1-13.286,8.694l19.137,26.792Zm-25.7-29.963q12.248,0,18.7-5.412t6.451-15.365q0-9.949-6.451-15.365t-18.7-5.412h-21.87v41.554Z"
                style="fill:#56caf5" />
            <path
                d="M430.958,418.3a37.434,37.434,0,0,1-14.27-13.943,40.3,40.3,0,0,1,0-39.586,37.42,37.42,0,0,1,14.27-13.943,43.436,43.436,0,0,1,40.679-.055,37.09,37.09,0,0,1,14.271,13.888,40.735,40.735,0,0,1,0,39.805,37.055,37.055,0,0,1-14.271,13.888,43.432,43.432,0,0,1-40.679-.054Zm37.726-4.429a32.23,32.23,0,0,0,12.247-12.083,35.312,35.312,0,0,0,0-34.446,32.226,32.226,0,0,0-12.247-12.084,36.846,36.846,0,0,0-34.829,0,32.113,32.113,0,0,0-12.3,12.084,35.326,35.326,0,0,0,0,34.446,32.117,32.117,0,0,0,12.3,12.083,36.854,36.854,0,0,0,34.829,0Z"
                style="fill:#56caf5" />
            <path
                d="M517.838,414.96q-8.037-8.42-8.038-24.6v-44.07h5.578v43.851q0,14.106,6.451,21.105t18.7,7q12.138,0,18.591-7t6.452-21.105V346.286h5.577v44.07q0,16.185-8.092,24.6t-22.637,8.42Q525.875,423.38,517.838,414.96Z"
                style="fill:#56caf5" />
            <path d="M610.3,351.317H582.738v-5.031h60.691v5.031H615.873v71.517H610.3Z"
                style="fill:#56caf5" />
            <path
                d="M710.025,417.8v5.03H657.208V346.286h51.177v5.031h-45.6V381.5h40.79v4.92h-40.79V417.8Z"
                style="fill:#56caf5" />
            <path
                d="M469.247,172.552,368.963,9.461a17.583,17.583,0,0,0-15.122-8.394h-.21A17.575,17.575,0,0,0,338.5,9.8l-19.75,33.791L294.359,4.741a10.122,10.122,0,0,0-17.144,10.766L391.172,196.974l9.532,15.5A39.6,39.6,0,0,0,425.169,230.2a41.2,41.2,0,0,0,9.869,1.2,40.56,40.56,0,0,0,20.167-5.368,38.7,38.7,0,0,0,18.531-24.137A37.741,37.741,0,0,0,469.247,172.552Zm-15.126,24.331a18.617,18.617,0,0,1-8.963,11.573c-9.45,5.4-21.656,2.448-27.209-6.583l-3.279-5.333a10.261,10.261,0,0,0-.71-1.345l-5.592-8.9L331.684,61.581l22.2-37.988L452,183.156A17.658,17.658,0,0,1,454.121,196.883Z"
                style="fill:#56caf5" />
            <path
                d="M294.449,125c-.283-.527-.547-1.028-.8-1.5a44.413,44.413,0,0,0-2.561-4.456c-.065-.095-.132-.186-.2-.278L268.243,78.42a10.122,10.122,0,1,0-17.652,9.911l18.986,33.819c-.072.149-.14.293-.2.428l-29.949,49.813-.234.508a44.512,44.512,0,1,0,79.658-2.463Zm6.01,78.95a24.267,24.267,0,0,1-43.085-22.125l23.564-39.194,20.074,37.383A24.068,24.068,0,0,1,300.459,203.95Z"
                style="fill:#56caf5" />
        </g>
    </g>
</svg>