<?xml version="1.0" encoding="utf-8"?>
<svg viewBox="-62.88 18.451 240.929 240.929" width="240.929" height="240.929" xmlns="http://www.w3.org/2000/svg">
  <g transform="matrix(0.711193, 0, 0, 0.711193, -206.849869, 23.664454)" style="">
    <path d="M 487.873 215.287 L 387.589 52.196 C 384.368 46.941 378.631 43.756 372.467 43.802 L 372.257 43.802 C 366.021 43.823 360.263 47.146 357.126 52.535 L 337.376 86.326 L 312.985 47.476 C 308.841 40.877 299.108 41.239 295.465 48.127 C 293.775 51.324 293.918 55.18 295.841 58.242 L 409.798 239.709 L 419.33 255.209 C 424.822 264.119 433.618 270.492 443.795 272.935 C 447.024 273.732 450.338 274.135 453.664 274.135 C 460.74 274.135 467.692 272.285 473.831 268.767 C 483.045 263.589 489.74 254.869 492.362 244.63 C 494.937 234.647 493.315 224.044 487.873 215.287 Z M 472.747 239.618 C 471.465 244.538 468.227 248.719 463.784 251.191 C 454.334 256.591 442.128 253.639 436.575 244.608 L 433.296 239.275 C 433.093 238.81 432.856 238.36 432.586 237.93 L 426.994 229.03 L 350.31 104.316 L 372.51 66.328 L 470.626 225.891 C 473.179 229.985 473.945 234.945 472.747 239.618 Z" style="fill:#56caf5"/>
    <path d="M 313.075 167.735 C 312.792 167.208 312.528 166.707 312.275 166.235 C 311.508 164.702 310.653 163.214 309.714 161.779 C 309.649 161.684 309.582 161.593 309.514 161.501 L 286.869 121.155 C 283.054 114.361 273.315 114.244 269.339 120.945 C 267.493 124.055 267.447 127.913 269.217 131.066 L 288.203 164.885 C 288.131 165.034 288.063 165.178 288.003 165.313 L 258.054 215.126 L 257.82 215.634 C 243.506 246.766 268.261 281.72 302.38 278.55 C 334.108 275.602 352.553 241.245 337.478 213.171 L 313.075 167.735 Z M 319.085 246.685 C 309.502 262.72 286.154 262.368 277.058 246.051 C 273.375 239.444 272.984 231.497 276 224.56 L 299.564 185.366 L 319.638 222.749 C 323.717 230.26 323.506 239.371 319.085 246.685 Z" style="fill:#56caf5"/>
  </g>
</svg>